# xmcd
#
# Track frame offsets: 
#        150
#        25154
#        42873
#        72892
#        98783
#        107861
#        122289
#        134044
#        164056
#        183085
#
# Disc length: 2620 seconds
#
# Revision: 0
# Processed by: cddbd v1.4PL0 Copyright (c) Steve Scherf et al.
# Submitted via: ExactAudioCopy v0.90b4
#
DISCID=850a3a0a
DTITLE=Van Morrison - The Wolftrap, disc 2
DYEAR=1986
DGENRE=Celtic
TTITLE0=Haunts Of Ancient Peace
TTITLE1=Cleaning Windows
TTITLE2=A Town Called Paradise
TTITLE3=A Sense Of Wonder
TTITLE4=Full Force Gale
TTITLE5=Bright Side Of The Road
TTITLE6=Cry For Home
TTITLE7=Summertime In England
TTITLE8=Send In The Clowns
TTITLE9=Jackie Wilson Said ...
EXTD=
EXTT0=
EXTT1=
EXTT2=
EXTT3=
EXTT4=
EXTT5=
EXTT6=
EXTT7=
EXTT8=
EXTT9=
PLAYORDER=
